<mxfile host="app.diagrams.net" modified="2023-06-28T09:50:15.388Z" agent="Mozilla/5.0 (Windows NT 10.0; Win64; x64) AppleWebKit/537.36 (KHTML, like Gecko) Chrome/114.0.0.0 Safari/537.36" etag="rN_TFZVIO52rbilmXLFQ" version="21.3.0" type="device">
  <diagram name="Page-1" id="W2kNYys8vk0xeSvzIre6">
    <mxGraphModel dx="1171" dy="543" grid="1" gridSize="10" guides="1" tooltips="1" connect="1" arrows="1" fold="1" page="1" pageScale="1" pageWidth="1169" pageHeight="827" math="0" shadow="0">
      <root>
        <mxCell id="0" />
        <mxCell id="1" parent="0" />
        <mxCell id="6TnEhaWRtZqIaBSB837b-74" value="" style="rounded=1;whiteSpace=wrap;html=1;fillColor=none;strokeWidth=3;dashed=1;dashPattern=1 1;" parent="1" vertex="1">
          <mxGeometry x="410" y="210" width="550" height="470" as="geometry" />
        </mxCell>
        <mxCell id="6TnEhaWRtZqIaBSB837b-1" value="AC / DC&amp;nbsp;&lt;br&gt;220V to 18V output&lt;br&gt;Mean Well GST60A18-P1J" style="rounded=1;whiteSpace=wrap;html=1;fillColor=#fff2cc;strokeColor=#d6b656;" parent="1" vertex="1">
          <mxGeometry x="230" y="360" width="120" height="80" as="geometry" />
        </mxCell>
        <mxCell id="6TnEhaWRtZqIaBSB837b-20" value="" style="endArrow=classic;html=1;rounded=0;strokeWidth=3;entryX=0;entryY=0.5;entryDx=0;entryDy=0;" parent="1" source="6TnEhaWRtZqIaBSB837b-73" target="6TnEhaWRtZqIaBSB837b-1" edge="1">
          <mxGeometry relative="1" as="geometry">
            <mxPoint x="230" y="399.58000000000004" as="sourcePoint" />
            <mxPoint x="290" y="400" as="targetPoint" />
          </mxGeometry>
        </mxCell>
        <mxCell id="6TnEhaWRtZqIaBSB837b-21" value="AC 220v" style="edgeLabel;resizable=0;html=1;align=center;verticalAlign=middle;" parent="6TnEhaWRtZqIaBSB837b-20" connectable="0" vertex="1">
          <mxGeometry relative="1" as="geometry">
            <mxPoint x="-5" y="-10" as="offset" />
          </mxGeometry>
        </mxCell>
        <mxCell id="6TnEhaWRtZqIaBSB837b-22" value="Wurth transformer&amp;nbsp;" style="rounded=1;whiteSpace=wrap;html=1;fillColor=#d5e8d4;strokeColor=#82b366;" parent="1" vertex="1">
          <mxGeometry x="490" y="300" width="120" height="200" as="geometry" />
        </mxCell>
        <mxCell id="6TnEhaWRtZqIaBSB837b-23" value="" style="endArrow=classic;html=1;rounded=0;exitX=1;exitY=0.5;exitDx=0;exitDy=0;entryX=0;entryY=0.5;entryDx=0;entryDy=0;entryPerimeter=0;" parent="1" source="6TnEhaWRtZqIaBSB837b-1" target="6TnEhaWRtZqIaBSB837b-76" edge="1">
          <mxGeometry relative="1" as="geometry">
            <mxPoint x="420" y="399.58000000000004" as="sourcePoint" />
            <mxPoint x="400" y="400" as="targetPoint" />
          </mxGeometry>
        </mxCell>
        <mxCell id="6TnEhaWRtZqIaBSB837b-24" value="DC 18V" style="edgeLabel;resizable=0;html=1;align=center;verticalAlign=middle;" parent="6TnEhaWRtZqIaBSB837b-23" connectable="0" vertex="1">
          <mxGeometry relative="1" as="geometry">
            <mxPoint x="-5" y="-10" as="offset" />
          </mxGeometry>
        </mxCell>
        <mxCell id="6TnEhaWRtZqIaBSB837b-26" value="" style="endArrow=classic;html=1;rounded=0;" parent="1" edge="1">
          <mxGeometry relative="1" as="geometry">
            <mxPoint x="610" y="340.00000000000006" as="sourcePoint" />
            <mxPoint x="680" y="340.42" as="targetPoint" />
          </mxGeometry>
        </mxCell>
        <mxCell id="6TnEhaWRtZqIaBSB837b-27" value="DC 18V" style="edgeLabel;resizable=0;html=1;align=center;verticalAlign=middle;" parent="6TnEhaWRtZqIaBSB837b-26" connectable="0" vertex="1">
          <mxGeometry relative="1" as="geometry">
            <mxPoint x="-5" y="-10" as="offset" />
          </mxGeometry>
        </mxCell>
        <mxCell id="6TnEhaWRtZqIaBSB837b-28" value="" style="endArrow=classic;html=1;rounded=0;" parent="1" edge="1">
          <mxGeometry relative="1" as="geometry">
            <mxPoint x="610" y="380.00000000000006" as="sourcePoint" />
            <mxPoint x="680" y="380.42" as="targetPoint" />
          </mxGeometry>
        </mxCell>
        <mxCell id="6TnEhaWRtZqIaBSB837b-29" value="DC 9V" style="edgeLabel;resizable=0;html=1;align=center;verticalAlign=middle;" parent="6TnEhaWRtZqIaBSB837b-28" connectable="0" vertex="1">
          <mxGeometry relative="1" as="geometry">
            <mxPoint x="-5" y="-10" as="offset" />
          </mxGeometry>
        </mxCell>
        <mxCell id="6TnEhaWRtZqIaBSB837b-30" value="" style="endArrow=classic;html=1;rounded=0;" parent="1" edge="1">
          <mxGeometry relative="1" as="geometry">
            <mxPoint x="610" y="430.00000000000006" as="sourcePoint" />
            <mxPoint x="680" y="430.42" as="targetPoint" />
          </mxGeometry>
        </mxCell>
        <mxCell id="6TnEhaWRtZqIaBSB837b-31" value="DC -9V" style="edgeLabel;resizable=0;html=1;align=center;verticalAlign=middle;" parent="6TnEhaWRtZqIaBSB837b-30" connectable="0" vertex="1">
          <mxGeometry relative="1" as="geometry">
            <mxPoint x="-5" y="-10" as="offset" />
          </mxGeometry>
        </mxCell>
        <mxCell id="6TnEhaWRtZqIaBSB837b-32" value="" style="endArrow=classic;html=1;rounded=0;" parent="1" edge="1">
          <mxGeometry relative="1" as="geometry">
            <mxPoint x="610" y="470.00000000000006" as="sourcePoint" />
            <mxPoint x="680" y="470.42" as="targetPoint" />
          </mxGeometry>
        </mxCell>
        <mxCell id="6TnEhaWRtZqIaBSB837b-33" value="DC -18V" style="edgeLabel;resizable=0;html=1;align=center;verticalAlign=middle;" parent="6TnEhaWRtZqIaBSB837b-32" connectable="0" vertex="1">
          <mxGeometry relative="1" as="geometry">
            <mxPoint x="-5" y="-10" as="offset" />
          </mxGeometry>
        </mxCell>
        <mxCell id="6TnEhaWRtZqIaBSB837b-35" value="LM317M" style="rounded=1;whiteSpace=wrap;html=1;fillColor=#d5e8d4;strokeColor=#82b366;" parent="1" vertex="1">
          <mxGeometry x="680" y="370" width="60" height="20" as="geometry" />
        </mxCell>
        <mxCell id="6TnEhaWRtZqIaBSB837b-36" value="" style="endArrow=classic;html=1;rounded=0;exitX=1;exitY=0.5;exitDx=0;exitDy=0;exitPerimeter=0;" parent="1" source="6TnEhaWRtZqIaBSB837b-42" edge="1">
          <mxGeometry relative="1" as="geometry">
            <mxPoint x="780" y="380" as="sourcePoint" />
            <mxPoint x="890" y="380" as="targetPoint" />
          </mxGeometry>
        </mxCell>
        <mxCell id="6TnEhaWRtZqIaBSB837b-37" value="DC 5V" style="edgeLabel;resizable=0;html=1;align=center;verticalAlign=middle;" parent="6TnEhaWRtZqIaBSB837b-36" connectable="0" vertex="1">
          <mxGeometry relative="1" as="geometry">
            <mxPoint x="15" y="-10" as="offset" />
          </mxGeometry>
        </mxCell>
        <mxCell id="6TnEhaWRtZqIaBSB837b-38" value="LM337M" style="rounded=1;whiteSpace=wrap;html=1;fillColor=#d5e8d4;strokeColor=#82b366;" parent="1" vertex="1">
          <mxGeometry x="680" y="420" width="60" height="20" as="geometry" />
        </mxCell>
        <mxCell id="6TnEhaWRtZqIaBSB837b-40" value="" style="endArrow=classic;html=1;rounded=0;exitX=1;exitY=0.5;exitDx=0;exitDy=0;exitPerimeter=0;" parent="1" source="6TnEhaWRtZqIaBSB837b-48" edge="1">
          <mxGeometry relative="1" as="geometry">
            <mxPoint x="800" y="430" as="sourcePoint" />
            <mxPoint x="890" y="430" as="targetPoint" />
          </mxGeometry>
        </mxCell>
        <mxCell id="6TnEhaWRtZqIaBSB837b-41" value="DC -5V" style="edgeLabel;resizable=0;html=1;align=center;verticalAlign=middle;" parent="6TnEhaWRtZqIaBSB837b-40" connectable="0" vertex="1">
          <mxGeometry relative="1" as="geometry">
            <mxPoint x="15" y="-10" as="offset" />
          </mxGeometry>
        </mxCell>
        <mxCell id="6TnEhaWRtZqIaBSB837b-52" style="edgeStyle=orthogonalEdgeStyle;rounded=0;orthogonalLoop=1;jettySize=auto;html=1;exitX=0;exitY=0.5;exitDx=0;exitDy=0;exitPerimeter=0;entryX=1;entryY=0.5;entryDx=0;entryDy=0;endArrow=none;endFill=0;" parent="1" source="6TnEhaWRtZqIaBSB837b-42" target="6TnEhaWRtZqIaBSB837b-35" edge="1">
          <mxGeometry relative="1" as="geometry" />
        </mxCell>
        <mxCell id="6TnEhaWRtZqIaBSB837b-42" value="&lt;font style=&quot;font-size: 11px;&quot;&gt;400mA&lt;/font&gt;" style="pointerEvents=1;verticalLabelPosition=bottom;shadow=0;dashed=0;align=center;html=1;verticalAlign=top;shape=mxgraph.electrical.miscellaneous.fuse_4;" parent="1" vertex="1">
          <mxGeometry x="750" y="375" width="30" height="10" as="geometry" />
        </mxCell>
        <mxCell id="6TnEhaWRtZqIaBSB837b-51" style="edgeStyle=orthogonalEdgeStyle;rounded=0;orthogonalLoop=1;jettySize=auto;html=1;exitX=0;exitY=0.5;exitDx=0;exitDy=0;exitPerimeter=0;entryX=1;entryY=0.5;entryDx=0;entryDy=0;endArrow=none;endFill=0;" parent="1" source="6TnEhaWRtZqIaBSB837b-48" target="6TnEhaWRtZqIaBSB837b-38" edge="1">
          <mxGeometry relative="1" as="geometry" />
        </mxCell>
        <mxCell id="6TnEhaWRtZqIaBSB837b-48" value="&lt;font style=&quot;font-size: 11px;&quot;&gt;400mA&lt;/font&gt;" style="pointerEvents=1;verticalLabelPosition=bottom;shadow=0;dashed=0;align=center;html=1;verticalAlign=top;shape=mxgraph.electrical.miscellaneous.fuse_4;" parent="1" vertex="1">
          <mxGeometry x="750" y="425" width="30" height="10" as="geometry" />
        </mxCell>
        <mxCell id="6TnEhaWRtZqIaBSB837b-49" value="LM317M" style="rounded=1;whiteSpace=wrap;html=1;fillColor=#d5e8d4;strokeColor=#82b366;" parent="1" vertex="1">
          <mxGeometry x="680" y="330" width="60" height="20" as="geometry" />
        </mxCell>
        <mxCell id="6TnEhaWRtZqIaBSB837b-50" value="LM337M" style="rounded=1;whiteSpace=wrap;html=1;fillColor=#d5e8d4;strokeColor=#82b366;" parent="1" vertex="1">
          <mxGeometry x="680" y="460" width="60" height="20" as="geometry" />
        </mxCell>
        <mxCell id="6TnEhaWRtZqIaBSB837b-56" style="edgeStyle=orthogonalEdgeStyle;rounded=0;orthogonalLoop=1;jettySize=auto;html=1;exitX=0;exitY=0.5;exitDx=0;exitDy=0;exitPerimeter=0;entryX=1;entryY=0.5;entryDx=0;entryDy=0;endArrow=none;endFill=0;" parent="1" source="6TnEhaWRtZqIaBSB837b-53" target="6TnEhaWRtZqIaBSB837b-50" edge="1">
          <mxGeometry relative="1" as="geometry" />
        </mxCell>
        <mxCell id="6TnEhaWRtZqIaBSB837b-53" value="&lt;font style=&quot;font-size: 11px;&quot;&gt;400mA&lt;/font&gt;" style="pointerEvents=1;verticalLabelPosition=bottom;shadow=0;dashed=0;align=center;html=1;verticalAlign=top;shape=mxgraph.electrical.miscellaneous.fuse_4;" parent="1" vertex="1">
          <mxGeometry x="750" y="465" width="30" height="10" as="geometry" />
        </mxCell>
        <mxCell id="6TnEhaWRtZqIaBSB837b-55" style="edgeStyle=orthogonalEdgeStyle;rounded=0;orthogonalLoop=1;jettySize=auto;html=1;exitX=0;exitY=0.5;exitDx=0;exitDy=0;exitPerimeter=0;entryX=1;entryY=0.5;entryDx=0;entryDy=0;endArrow=none;endFill=0;" parent="1" source="6TnEhaWRtZqIaBSB837b-54" target="6TnEhaWRtZqIaBSB837b-49" edge="1">
          <mxGeometry relative="1" as="geometry" />
        </mxCell>
        <mxCell id="6TnEhaWRtZqIaBSB837b-54" value="&lt;font style=&quot;font-size: 11px;&quot;&gt;400mA&lt;/font&gt;" style="pointerEvents=1;verticalLabelPosition=bottom;shadow=0;dashed=0;align=center;html=1;verticalAlign=top;shape=mxgraph.electrical.miscellaneous.fuse_4;" parent="1" vertex="1">
          <mxGeometry x="750" y="335" width="30" height="10" as="geometry" />
        </mxCell>
        <mxCell id="6TnEhaWRtZqIaBSB837b-57" value="" style="endArrow=classic;html=1;rounded=0;exitX=1;exitY=0.5;exitDx=0;exitDy=0;exitPerimeter=0;" parent="1" edge="1">
          <mxGeometry relative="1" as="geometry">
            <mxPoint x="780" y="339.8" as="sourcePoint" />
            <mxPoint x="890" y="340" as="targetPoint" />
          </mxGeometry>
        </mxCell>
        <mxCell id="6TnEhaWRtZqIaBSB837b-58" value="DC 15V" style="edgeLabel;resizable=0;html=1;align=center;verticalAlign=middle;" parent="6TnEhaWRtZqIaBSB837b-57" connectable="0" vertex="1">
          <mxGeometry relative="1" as="geometry">
            <mxPoint x="15" y="-10" as="offset" />
          </mxGeometry>
        </mxCell>
        <mxCell id="6TnEhaWRtZqIaBSB837b-59" value="" style="endArrow=classic;html=1;rounded=0;exitX=1;exitY=0.5;exitDx=0;exitDy=0;exitPerimeter=0;" parent="1" edge="1">
          <mxGeometry relative="1" as="geometry">
            <mxPoint x="780" y="469.8" as="sourcePoint" />
            <mxPoint x="890" y="470" as="targetPoint" />
          </mxGeometry>
        </mxCell>
        <mxCell id="6TnEhaWRtZqIaBSB837b-60" value="DC -15V" style="edgeLabel;resizable=0;html=1;align=center;verticalAlign=middle;" parent="6TnEhaWRtZqIaBSB837b-59" connectable="0" vertex="1">
          <mxGeometry relative="1" as="geometry">
            <mxPoint x="15" y="-10" as="offset" />
          </mxGeometry>
        </mxCell>
        <mxCell id="6TnEhaWRtZqIaBSB837b-62" value="TekProbe&lt;br&gt;PCB&lt;br&gt;Connector" style="rounded=1;whiteSpace=wrap;html=1;fillColor=#d0cee2;strokeColor=#56517e;" parent="1" vertex="1">
          <mxGeometry x="890" y="315" width="90" height="175" as="geometry" />
        </mxCell>
        <mxCell id="6TnEhaWRtZqIaBSB837b-63" value="" style="endArrow=classic;html=1;rounded=0;" parent="1" edge="1">
          <mxGeometry width="50" height="50" relative="1" as="geometry">
            <mxPoint x="820" y="380" as="sourcePoint" />
            <mxPoint x="820" y="520" as="targetPoint" />
          </mxGeometry>
        </mxCell>
        <mxCell id="6TnEhaWRtZqIaBSB837b-64" value="" style="endArrow=classic;html=1;rounded=0;" parent="1" edge="1">
          <mxGeometry width="50" height="50" relative="1" as="geometry">
            <mxPoint x="800" y="430" as="sourcePoint" />
            <mxPoint x="800" y="520" as="targetPoint" />
          </mxGeometry>
        </mxCell>
        <mxCell id="6TnEhaWRtZqIaBSB837b-65" value="&lt;font style=&quot;font-size: 10px;&quot;&gt;Offset Generator &lt;br&gt;-1v to 1v&lt;/font&gt;" style="rounded=1;whiteSpace=wrap;html=1;fillColor=#fad9d5;strokeColor=#ae4132;" parent="1" vertex="1">
          <mxGeometry x="780" y="520" width="60" height="60" as="geometry" />
        </mxCell>
        <mxCell id="6TnEhaWRtZqIaBSB837b-66" value="DC -1v to 1v" style="edgeStyle=orthogonalEdgeStyle;rounded=0;orthogonalLoop=1;jettySize=auto;html=1;exitX=1;exitY=0.5;exitDx=0;exitDy=0;entryX=0.5;entryY=1;entryDx=0;entryDy=0;" parent="1" source="6TnEhaWRtZqIaBSB837b-65" target="6TnEhaWRtZqIaBSB837b-62" edge="1">
          <mxGeometry x="-0.226" y="10" relative="1" as="geometry">
            <mxPoint as="offset" />
          </mxGeometry>
        </mxCell>
        <mxCell id="6TnEhaWRtZqIaBSB837b-68" value="Adjustments: &lt;br&gt;Coarse &amp;amp; Fine" style="shape=flexArrow;endArrow=classic;html=1;rounded=0;entryX=0.5;entryY=1;entryDx=0;entryDy=0;fillColor=none;" parent="1" target="6TnEhaWRtZqIaBSB837b-65" edge="1">
          <mxGeometry x="-1" y="-20" width="50" height="50" relative="1" as="geometry">
            <mxPoint x="810" y="620" as="sourcePoint" />
            <mxPoint x="810" y="600" as="targetPoint" />
            <mxPoint x="-20" y="20" as="offset" />
          </mxGeometry>
        </mxCell>
        <mxCell id="6TnEhaWRtZqIaBSB837b-73" value="" style="shape=image;verticalLabelPosition=bottom;labelBackgroundColor=default;verticalAlign=top;aspect=fixed;imageAspect=0;image=https://cdn1.iconfinder.com/data/icons/electricity-26/400/Power_Connector-iec_c13-iec_c14-power_cord-coupler-power_plug-appliance-cable-electricity-512.png;" parent="1" vertex="1">
          <mxGeometry x="80" y="362.5" width="75" height="75" as="geometry" />
        </mxCell>
        <mxCell id="6TnEhaWRtZqIaBSB837b-75" value="&lt;font style=&quot;font-size: 18px;&quot;&gt;&lt;b&gt;TekProbe Power Supply&lt;/b&gt;&lt;/font&gt;" style="text;html=1;strokeColor=none;fillColor=none;align=center;verticalAlign=middle;whiteSpace=wrap;rounded=0;" parent="1" vertex="1">
          <mxGeometry x="562.5" y="690" width="245" height="30" as="geometry" />
        </mxCell>
        <mxCell id="6TnEhaWRtZqIaBSB837b-77" style="edgeStyle=orthogonalEdgeStyle;rounded=0;orthogonalLoop=1;jettySize=auto;html=1;exitX=1;exitY=0.5;exitDx=0;exitDy=0;exitPerimeter=0;entryX=0;entryY=0.5;entryDx=0;entryDy=0;" parent="1" source="6TnEhaWRtZqIaBSB837b-76" target="6TnEhaWRtZqIaBSB837b-22" edge="1">
          <mxGeometry relative="1" as="geometry" />
        </mxCell>
        <mxCell id="6TnEhaWRtZqIaBSB837b-76" value="&lt;font style=&quot;font-size: 11px;&quot;&gt;1A Fast Fuse&lt;/font&gt;" style="pointerEvents=1;verticalLabelPosition=bottom;shadow=0;dashed=0;align=center;html=1;verticalAlign=top;shape=mxgraph.electrical.miscellaneous.fuse_4;" parent="1" vertex="1">
          <mxGeometry x="420" y="390" width="60" height="20" as="geometry" />
        </mxCell>
        <mxCell id="6TnEhaWRtZqIaBSB837b-78" value="" style="shape=flexArrow;endArrow=classic;html=1;rounded=0;endWidth=61.36823319452707;endSize=15.69268292682927;width=72.19512195121952;fillColor=#d0cee2;strokeColor=#56517e;fillStyle=zigzag-line;strokeWidth=2;" parent="1" edge="1">
          <mxGeometry width="50" height="50" relative="1" as="geometry">
            <mxPoint x="1070" y="399.58" as="sourcePoint" />
            <mxPoint x="1000" y="399.58" as="targetPoint" />
          </mxGeometry>
        </mxCell>
        <mxCell id="6TnEhaWRtZqIaBSB837b-79" value="&lt;b&gt;PROBE&lt;/b&gt;" style="text;html=1;strokeColor=none;fillColor=none;align=center;verticalAlign=middle;whiteSpace=wrap;rounded=0;rotation=-90;" parent="1" vertex="1">
          <mxGeometry x="1050" y="385" width="60" height="30" as="geometry" />
        </mxCell>
      </root>
    </mxGraphModel>
  </diagram>
</mxfile>
